<?xml version="1.0" encoding="UTF-8"?>
<svg width="84px" height="84px" viewBox="0 0 84 84" version="1.1" xmlns="http://www.w3.org/2000/svg" xmlns:xlink="http://www.w3.org/1999/xlink">
    <defs>
        <path d="M50,8.33333333 C27.0833333,8.33333333 8.33333333,27.0833333 8.33333333,50 C8.33333333,72.9166667 27.0833333,91.6666667 50,91.6666667 C72.9166667,91.6666667 91.6666667,72.9166667 91.6666667,50 C91.6666667,27.0833333 72.9166667,8.33333333 50,8.33333333 L50,8.33333333 Z M67.5,67.5 L45.8333333,54.1666667 L45.8333333,29.1666667 L52.0833333,29.1666667 L52.0833333,50.8333333 L70.8333333,62.0833333 L67.5,67.5 L67.5,67.5 Z" id="path-1"></path>
    </defs>
    <g id="Page-3" stroke="none" stroke-width="1" fill="none" fill-rule="evenodd">
        <g id="Contact" transform="translate(-268.000000, -924.000000)">
            <g id="Group-7" transform="translate(255.000000, 747.000000)">
                <g id="icon/timer" transform="translate(5.000000, 169.000000)">
                    <polygon id="Bounds" points="0 0 100 0 100 100 0 100"></polygon>
                    <mask id="mask-2" fill="white">
                        <use xlink:href="#path-1"></use>
                    </mask>
                    <use id="Icon" fill="#000000" fill-rule="evenodd" xlink:href="#path-1"></use>
                </g>
            </g>
        </g>
    </g>
</svg>
