<?xml version="1.0" encoding="UTF-8"?>
<svg width="34px" height="34px" viewBox="0 0 34 34" version="1.1" xmlns="http://www.w3.org/2000/svg" xmlns:xlink="http://www.w3.org/1999/xlink">
    <!-- Generator: Sketch 55.2 (78181) - https://sketchapp.com -->
    <title>Action/ic_face</title>
    <desc>Created with Sketch.</desc>
    <g id="Page-3" stroke="none" stroke-width="1" fill="none" fill-rule="evenodd">
        <g id="Landing-page" transform="translate(-737.000000, -3213.000000)">
            <g id="Group-9" transform="translate(734.000000, 3210.000000)">
                <g id="Action/ic_face">
                    <g id="ic_face">
                        <polygon id="Bounds" points="0 0 40 0 40 40 0 40"></polygon>
                        <path d="M15,19.5833333 C13.85,19.5833333 12.9166667,20.5166667 12.9166667,21.6666667 C12.9166667,22.8166667 13.85,23.75 15,23.75 C16.15,23.75 17.0833333,22.8166667 17.0833333,21.6666667 C17.0833333,20.5166667 16.15,19.5833333 15,19.5833333 L15,19.5833333 Z M25,19.5833333 C23.85,19.5833333 22.9166667,20.5166667 22.9166667,21.6666667 C22.9166667,22.8166667 23.85,23.75 25,23.75 C26.15,23.75 27.0833333,22.8166667 27.0833333,21.6666667 C27.0833333,20.5166667 26.15,19.5833333 25,19.5833333 L25,19.5833333 Z M20,3.33333333 C10.8,3.33333333 3.33333333,10.8 3.33333333,20 C3.33333333,29.2 10.8,36.6666667 20,36.6666667 C29.2,36.6666667 36.6666667,29.2 36.6666667,20 C36.6666667,10.8 29.2,3.33333333 20,3.33333333 L20,3.33333333 Z M20,33.3333333 C12.65,33.3333333 6.66666667,27.35 6.66666667,20 C6.66666667,19.5166667 6.7,19.0333333 6.75,18.5666667 C10.6833333,16.8166667 13.8,13.6 15.4333333,9.61666667 C18.45,13.8833333 23.4166667,16.6666667 29.0333333,16.6666667 C30.3333333,16.6666667 31.5833333,16.5166667 32.7833333,16.2333333 C33.1333333,17.4166667 33.3333333,18.6833333 33.3333333,20 C33.3333333,27.35 27.35,33.3333333 20,33.3333333 L20,33.3333333 Z" id="Icon" fill="#000000"></path>
                    </g>
                </g>
            </g>
        </g>
    </g>
</svg>