<?xml version="1.0" encoding="UTF-8"?>
<svg width="34px" height="34px" viewBox="0 0 34 34" version="1.1" xmlns="http://www.w3.org/2000/svg" xmlns:xlink="http://www.w3.org/1999/xlink">
    <g id="Page-3" stroke="none" stroke-width="1" fill="none" fill-rule="evenodd">
        <g id="Landing-page" transform="translate(-253.000000, -3213.000000)">
            <g id="Action/ic_info" transform="translate(250.000000, 3210.000000)">
                <g id="ic_info">
                    <polygon id="Bounds" points="0 0 40 0 40 40 0 40"></polygon>
                    <path d="M20,3.33333333 C10.8,3.33333333 3.33333333,10.8 3.33333333,20 C3.33333333,29.2 10.8,36.6666667 20,36.6666667 C29.2,36.6666667 36.6666667,29.2 36.6666667,20 C36.6666667,10.8 29.2,3.33333333 20,3.33333333 L20,3.33333333 Z M21.6666667,28.3333333 L18.3333333,28.3333333 L18.3333333,18.3333333 L21.6666667,18.3333333 L21.6666667,28.3333333 L21.6666667,28.3333333 Z M21.6666667,15 L18.3333333,15 L18.3333333,11.6666667 L21.6666667,11.6666667 L21.6666667,15 L21.6666667,15 Z" id="Icon" fill="#000000"></path>
                </g>
            </g>
        </g>
    </g>
</svg>
