<?xml version="1.0" encoding="utf-8"?>
<!-- Generator: Adobe Illustrator 22.0.1, SVG Export Plug-In . SVG Version: 6.00 Build 0)  -->
<svg version="1.1" id="Layer_1" xmlns="http://www.w3.org/2000/svg" xmlns:xlink="http://www.w3.org/1999/xlink" x="0px" y="0px"
	 viewBox="0 0 92 92" style="enable-background:new 0 0 92 92;" xml:space="preserve">
<style type="text/css">
	.st0{fill:none;}
</style>
<g id="Page-3">
	<g id="Contact" transform="translate(-277.000000, -775.000000)">
		<g id="Group-7" transform="translate(255.000000, 747.000000)">
			<g id="Maps_x2F_ic_x5F_place" transform="translate(0.000000, 19.000000)">
				<g id="ic_place">
					<polygon id="Bounds" class="st0" points="13,0 123,0 123,110 13,110 					"/>
					<path id="Icon" d="M68,9.2c-17.7,0-32.1,14.3-32.1,32.1c0,24.1,32.1,59.6,32.1,59.6s32.1-35.5,32.1-59.6
						C100.1,23.5,85.7,9.2,68,9.2L68,9.2z M68,52.7c-6.3,0-11.5-5.1-11.5-11.5S61.7,29.8,68,29.8s11.5,5.1,11.5,11.5
						S74.3,52.7,68,52.7L68,52.7z"/>
				</g>
			</g>
		</g>
	</g>
</g>
</svg>
