<?xml version="1.0" encoding="UTF-8"?>
<svg width="60px" height="80px" viewBox="0 0 60 80" version="1.1" xmlns="http://www.w3.org/2000/svg" xmlns:xlink="http://www.w3.org/1999/xlink">
    <g id="Page-3" stroke="none" stroke-width="1" fill="none" fill-rule="evenodd">
        <g id="Contact" transform="translate(-280.000000, -2006.000000)">
            <g id="Group-2" transform="translate(200.000000, 1922.000000)">
                <g id="AV/ic_mic" transform="translate(60.000000, 76.000000)">
                    <g id="ic_mic">
                        <polygon id="Bounds" points="0 0 100 0 100 100 0 100"></polygon>
                        <path d="M50,58.3333333 C56.9166667,58.3333333 62.4583333,52.75 62.4583333,45.8333333 L62.5,20.8333333 C62.5,13.9166667 56.9166667,8.33333333 50,8.33333333 C43.0833333,8.33333333 37.5,13.9166667 37.5,20.8333333 L37.5,45.8333333 C37.5,52.75 43.0833333,58.3333333 50,58.3333333 L50,58.3333333 Z M72.0833333,45.8333333 C72.0833333,58.3333333 61.5,67.0833333 50,67.0833333 C38.5,67.0833333 27.9166667,58.3333333 27.9166667,45.8333333 L20.8333333,45.8333333 C20.8333333,60.0416667 32.1666667,71.7916667 45.8333333,73.8333333 L45.8333333,87.5 L54.1666667,87.5 L54.1666667,73.8333333 C67.8333333,71.8333333 79.1666667,60.0833333 79.1666667,45.8333333 L72.0833333,45.8333333 L72.0833333,45.8333333 Z" id="Icon" fill="#000000"></path>
                    </g>
                </g>
            </g>
        </g>
    </g>
</svg>
