<?xml version="1.0" encoding="utf-8"?>
<!-- Generator: Adobe Illustrator 25.2.1, SVG Export Plug-In . SVG Version: 6.00 Build 0)  -->
<svg version="1.1" id="Layer_1" xmlns="http://www.w3.org/2000/svg" xmlns:xlink="http://www.w3.org/1999/xlink" x="0px" y="0px"
	 viewBox="0 0 23 31" style="enable-background:new 0 0 23 31;" xml:space="preserve">
<g>
	<path d="M4.27,16.27h1.93c1.45,0,2.16,0.72,2.16,2.32v0.56c0,1.49-0.5,2.52-2.24,2.52h-0.6v3.96H4.27V16.27z M5.52,20.63h0.46
		c0.97,0,1.12-0.58,1.12-1.52v-0.48c0-0.71-0.14-1.32-1.01-1.32H5.52V20.63z"/>
	<path d="M9.27,16.27h1.87c2,0,2.39,1.12,2.39,2.75v3.63c0,1.43-0.24,2.97-2.42,2.97H9.27V16.27z M10.52,24.56h0.51
		c1.03,0,1.22-0.62,1.22-1.7v-3.95c0-0.95-0.17-1.55-1.22-1.55h-0.5V24.56z"/>
	<path d="M14.66,16.27h3.48v1.16h-2.23v2.71h2.11v1.16h-2.11v4.32h-1.25V16.27z"/>
</g>
<path d="M13.84,0.43H5.66C2.49,0.43-0.09,3-0.09,6.18v19c0,3.18,2.57,5.75,5.75,5.75h11.08c3.18,0,5.75-2.57,5.75-5.75V8.75
	c0-0.83-0.34-1.62-0.94-2.18L15.9,1.25C15.34,0.72,14.6,0.43,13.84,0.43z M19.39,7.46h-3.36c-0.55,0-1-0.45-1-1V3.33L19.39,7.46z
	 M20.5,25.18c0,2.07-1.68,3.75-3.75,3.75H5.66c-2.07,0-3.75-1.68-3.75-3.75v-19c0-2.07,1.68-3.75,3.75-3.75h7.37v4.03
	c0,1.65,1.35,3,3,3h4.46V25.18z"/>
</svg>
