<?xml version="1.0" encoding="utf-8"?>
<!-- Generator: Adobe Illustrator 25.2.1, SVG Export Plug-In . SVG Version: 6.00 Build 0)  -->
<svg version="1.1" id="Layer_1" xmlns="http://www.w3.org/2000/svg" xmlns:xlink="http://www.w3.org/1999/xlink" x="0px" y="0px"
	 viewBox="0 0 23 31" style="enable-background:new 0 0 23 31;" xml:space="preserve">
<path d="M17.4,30.46H6.31c-3.17,0-5.75-2.58-5.75-5.75v-19c0-3.17,2.58-5.75,5.75-5.75H17.4c3.17,0,5.75,2.58,5.75,5.75v19
	C23.15,27.88,20.57,30.46,17.4,30.46z M6.31,1.96c-2.07,0-3.75,1.68-3.75,3.75v19c0,2.07,1.68,3.75,3.75,3.75H17.4
	c2.07,0,3.75-1.68,3.75-3.75v-19c0-2.07-1.68-3.75-3.75-3.75H6.31z"/>
<rect x="6.77" y="7.96" width="10.18" height="2"/>
<rect x="6.77" y="14.19" width="10.18" height="2"/>
<rect x="6.77" y="20.19" width="10.18" height="2"/>
</svg>
