<?xml version="1.0" encoding="utf-8"?>
<!-- Generator: Adobe Illustrator 25.2.1, SVG Export Plug-In . SVG Version: 6.00 Build 0)  -->
<svg version="1.1" id="Layer_1" xmlns="http://www.w3.org/2000/svg" xmlns:xlink="http://www.w3.org/1999/xlink" x="0px" y="0px"
	 viewBox="0 0 30 31" style="enable-background:new 0 0 30 31;" xml:space="preserve">
<g>
	<path d="M14.95,0.33c-8.28,0-15,6.72-15,15c0,8.28,6.72,15,15,15c8.28,0,15-6.72,15-15C29.95,7.04,23.23,0.33,14.95,0.33z
		 M23.95,18.83c0,1.65-1.35,3-3,3h-12c-1.65,0-3-1.35-3-3v-7c0-1.65,1.35-3,3-3h12c1.65,0,3,1.35,3,3V18.83z"/>
	<polygon points="13.95,17.94 17.95,15.72 13.95,12.72 	"/>
</g>
</svg>
