<?xml version="1.0" encoding="UTF-8"?>
<svg width="1440px" height="194px" viewBox="0 0 1440 194" version="1.1" xmlns="http://www.w3.org/2000/svg" xmlns:xlink="http://www.w3.org/1999/xlink">
    <!-- Generator: Sketch 55.2 (78181) - https://sketchapp.com -->
    <title>Group 13</title>
    <desc>Created with Sketch.</desc>
    <g id="Page-3" stroke="none" stroke-width="1" fill="none" fill-rule="evenodd">
        <g id="Landing-page" transform="translate(0.000000, -5093.000000)">
            <g id="Group-13" transform="translate(0.000000, 5012.000000)">
                <g id="Group-3" transform="translate(833.500000, 144.000000) scale(-1, 1) translate(-833.500000, -144.000000) translate(157.000000, 18.000000)" fill="#82D0C8">
                    <path d="M61,107.010886 C183.577032,66.6747508 303.80481,54.5044555 421.683333,70.5 C587.150738,92.953125 629.473671,150.178835 867.925217,182.347656 C954.730279,194.058281 1116.42187,196.946024 1353,191.010886 L1353,251.010886 L61,251.010886 L61,107.010886 Z" id="Rectangle-Copy-7"></path>
                </g>
                <g id="Group-3" transform="translate(87.000000, 8.000000)" fill="#FFFFFF">
                    <path d="M61,122.010886 C183.577032,81.6747508 303.80481,69.5044555 421.683333,85.5 C587.150738,107.953125 629.473671,165.178835 867.925217,197.347656 C954.730279,209.058281 1116.42187,211.946024 1353,206.010886 L1353,266.010886 L61,266.010886 L61,122.010886 Z" id="Rectangle-Copy-7"></path>
                </g>
                <g id="Group-5" fill="#02A090" stroke="#02A090">
                    <path d="M0.5,130.358405 L0.5,273.5 L1439.5,273.5 L1439.5,214.506558 C1207.16192,217.5293 1042.64629,213.189005 945.939918,201.483501 C844.52761,189.208382 766.087194,174.709433 670.493873,152.515243 C652.2842,148.287448 589.473205,133.326913 591.934266,133.908532 C505.623198,113.510752 448.01202,102.138409 374.736222,92.605247 C248.116135,76.1320074 123.372676,88.7160559 0.5,130.358405 Z" id="Rectangle"></path>
                </g>
            </g>
        </g>
    </g>
</svg>